<svg version="1.1" id="Vert_on_White" xmlns="http://www.w3.org/2000/svg" xmlns:xlink="http://www.w3.org/1999/xlink" width="78px" height="119.5px" viewBox="0 0 78 119.5">
	<style type="text/css">.st2{fill:url(#SVGID_1_);}.st3{fill:url(#SVGID_2_);}.st4{fill:url(#SVGID_3_);}.st5{fill:url(#SVGID_4_);}.st6{fill:url(#SVGID_5_);}</style>
	<path fill="#0064A7" d="M4.5,87.2h1L9.3,96h-1l-1.3-3H3l-1.3,3H0.8L4.5,87.2z M3.3,92.3h3.4l-1.7-4L3.3,92.3z"/>
	<path fill="#0064A7" d="M11.9,87.2v5.5c0,0.6,0.1,1.2,0.3,1.6c0.5,1,1.4,1.1,1.8,1.1c0.4,0,1.3-0.1,1.8-1.1c0.2-0.4,0.3-1,0.3-1.6 v-5.5H17v5.5c0,0.7-0.1,1.4-0.3,1.8c-0.6,1.3-1.8,1.6-2.7,1.6c-0.8,0-2.1-0.3-2.7-1.6c-0.2-0.5-0.3-1.1-0.3-1.8v-5.5H11.9z"/>
	<path fill="#0064A7" d="M19.7,93.6c0,1.1,0.7,1.8,1.8,1.8c0.9,0,1.8-0.7,1.8-1.7c0-1.4-1.4-1.7-2-1.9c-0.8-0.2-2.3-0.6-2.3-2.3
	c0-1.4,1.1-2.4,2.5-2.4c1.4,0,2.4,1.1,2.4,2.4h-0.9c0-0.9-0.7-1.6-1.6-1.6c-1,0-1.6,0.8-1.6,1.5c0,1.1,0.9,1.3,2.1,1.7
	c2.2,0.6,2.2,2.3,2.2,2.5c0,1.4-1.1,2.6-2.7,2.6c-1.1,0-2.7-0.7-2.7-2.6H19.7z"/>
	<path fill="#0064A7" d="M27.2,88h-2v-0.8h4.9V88h-2v8h-0.9V88z"/>
	<path fill="#0064A7" d="M31.7,87.2h2.2c1.2,0,1.8,0.1,2.2,0.3c1,0.5,1.6,1.4,1.6,2.5c0,1.3-0.9,2.6-2.6,2.7l2.5,3.3h-1.1l-3-4c1.1,0,1.5,0,1.9-0.1c1-0.3,1.5-1.1,1.5-1.9c0-0.7-0.4-1.4-1-1.7c-0.5-0.3-1-0.3-1.7-0.3h-1.5v8h-0.9V87.2z"/>
	<path fill="#0064A7" d="M42.7,87.2h1l3.8,8.8h-1l-1.3-3h-4.1l-1.3,3h-0.9L42.7,87.2z M41.4,92.3h3.4l-1.7-4L41.4,92.3z"/>
	<path fill="#0064A7" d="M49.2,87.2h0.9v8h3.6V96h-4.5V87.2z"/>
	<path fill="#0064A7" d="M55.3,87.2h0.9V96h-0.9V87.2z"/>
	<path fill="#0064A7" d="M61.6,87.2h1l3.8,8.8h-1l-1.3-3h-4.1l-1.3,3h-0.9L61.6,87.2z M60.4,92.3h3.4l-1.7-4L60.4,92.3z"/>
	<path fill="#0064A7" d="M68.1,87.2h1.2l4.9,7.3h0v-7.3h0.9V96h-0.9L69,88.3h0V96h-0.9V87.2z"/>
	<path fill="#0064A7" d="M1.4,107.4v-8.8h2.1c0.8,0,1.6,0,2.4,0.5c0.7,0.5,1.2,1.3,1.2,2.2c0,0.9-0.4,1.7-1,2.2c-0.7,0.6-1.7,0.5-2.6,0.5H3.1v3.3H1.4z M3.4,102.5c0.4,0,0.9,0,1.3-0.1c0.5-0.2,0.8-0.6,0.8-1.1c0-0.5-0.4-0.9-0.8-1c-0.4-0.1-0.9-0.1-1.2-0.1H3.1v2.3H3.4z"/>
	<path fill="#0064A7" d="M10.2,98.6h1.3l3.7,8.8h-1.8l-1-2.3H9.3l-1,2.3H6.5L10.2,98.6z M11.8,103.5l-0.9-2.7l-0.9,2.7H11.8z"/>
	<path fill="#0064A7" d="M16.4,98.6H19c0.8,0,1.6,0.1,2.3,0.6c0.6,0.5,1,1.3,1,2.2c0,0.6-0.3,1.4-0.7,1.9c-0.4,0.5-1,0.7-1.6,0.8l2.4,3.2h-2L18,104v3.4h-1.6V98.6z M18.9,102.8c0.4,0,1-0.1,1.3-0.4c0.3-0.2,0.4-0.6,0.4-1c0-0.4-0.2-0.8-0.5-1
	c-0.4-0.3-0.8-0.3-1.2-0.3H18v2.6H18.9z"/>
	<path fill="#0064A7" d="M26.6,98.6h1.3l3.7,8.8h-1.8l-1-2.3h-3.1l-1,2.3h-1.8L26.6,98.6z M28.2,103.5l-0.9-2.7l-0.9,2.7H28.2z"/>
	<path fill="#0064A7" d="M32.8,98.6h1.6v7.2h2.7v1.6h-4.3V98.6z"/>
	<path fill="#0064A7" d="M39.5,104.1l-2.9-5.5h1.8l1.9,4l1.9-4H44l-2.9,5.5v3.2h-1.6V104.1z"/>
	<path fill="#0064A7" d="M45.1,98.6h2.2l2.4,6.7l2.4-6.7h2.2v8.8h-1.6v-6.6l-2.3,6.6H49l-2.3-6.6v6.6h-1.6V98.6z"/>
	<path fill="#0064A7" d="M56.1,107.4v-8.8h2.1c0.8,0,1.6,0,2.4,0.5c0.7,0.5,1.2,1.3,1.2,2.2c0,0.9-0.4,1.7-1,2.2c-0.7,0.6-1.7,0.5-2.6,0.5h-0.3v3.3H56.1z M58.1,102.5c0.4,0,0.9,0,1.3-0.1c0.5-0.2,0.8-0.6,0.8-1.1c0-0.5-0.4-0.9-0.8-1c-0.4-0.1-0.9-0.1-1.2-0.1h-0.3v2.3H58.1z"/>
	<path fill="#0064A7" d="M63.2,98.6h1.6v8.8h-1.6V98.6z"/>
	<path fill="#0064A7" d="M75,105c-0.7,1.6-2.4,2.6-4.1,2.6c-2.5,0-4.6-2.1-4.6-4.6c0-2.5,2.1-4.6,4.5-4.6c1.8,0,3.5,1,4.2,2.7h-1.9c-0.5-0.7-1.4-1.1-2.3-1.1c-1.6,0-2.9,1.4-2.9,3c0,1.6,1.3,3,2.9,3c0.9,0,1.6-0.4,2.2-1H75z"/>
	<path fill="#0064A7" d="M9.8,117c-0.9,1.7-2.6,2.5-4.1,2.5c-2.5,0-4.6-1.9-4.6-4.5s2.1-4.6,4.6-4.6c2.3,0,3.7,1.6,4,2.4h-1c-1-1.4-2.5-1.6-3.1-1.6C3.7,111.2,2,113,2,115c0,2.1,1.8,3.7,3.7,3.7c0.4,0,1.9-0.1,3.1-1.7H9.8z"/>
	<path fill="#0064A7" d="M16.4,110.4c2.5,0,4.7,2,4.7,4.6c0,2.6-2.2,4.6-4.7,4.6c-2.5,0-4.7-2-4.7-4.5C11.8,112.2,14.1,110.4,16.4,110.4z M16.4,118.7c2,0,3.8-1.7,3.8-3.7c0-2.1-1.7-3.8-3.8-3.8c-2,0-3.8,1.6-3.8,3.8C12.7,117,14.4,118.7,16.4,118.7z"/>
	<path fill="#0064A7" d="M23.5,110.5h1.4L28,118l3.2-7.5h1.4v8.8h-0.9v-7.8h0l-3.3,7.8h-0.7l-3.3-7.8h0v7.8h-0.9V110.5z"/>
	<path fill="#0064A7" d="M35.4,110.5h1.4l3.2,7.5l3.2-7.5h1.4v8.8h-0.9v-7.8h0l-3.3,7.8h-0.7l-3.3-7.8h0v7.8h-0.9V110.5z"/>
	<path fill="#0064A7" d="M47.3,110.5h0.9v8.8h-0.9V110.5z"/>
	<path fill="#0064A7" d="M52.1,111.3h-2v-0.8H55v0.8h-2v8h-0.9V111.3z"/>
	<path fill="#0064A7" d="M58.2,111.3h-2v-0.8h4.9v0.8h-2v8h-0.9V111.3z"/>
	<path fill="#0064A7" d="M63,110.5h4.8v0.8h-3.9v3.2h3.8v0.8h-3.8v3.2h3.9v0.8H63V110.5z"/>
	<path fill="#0064A7" d="M70.3,110.5h4.8v0.8h-3.9v3.2H75v0.8h-3.8v3.2h3.9v0.8h-4.8V110.5z"/>
	<path fill="#0064A7" d="M48.6,11.3c0,0,0.1,0,0.1,0C48.7,11.2,48.7,11.3,48.6,11.3L48.6,11.3z"/>
	<path fill="#FBBA00" d="M58.9,13.9c0,0,11.5,4.5,14.9,13.8c4.4,12.3-3.6,20-3.6,20s2.8-10.6-3.2-18.1c-8-10.3-15.5-8.8-15.3-9C57.2,14.7,58.9,13.9,58.9,13.9"/>
	<path fill="#FBBA00" d="M35.8,11.4c-0.5-0.9-2-2.2-1.7-3.2c0.3-0.9,0.8-1,0.8-1c-1.6,0.8-3.5,2.7-2.5,3.8C29.2,12.7,18,21.5,22.1,35.6C25.6,45.9,32.2,48.5,35.4,50c0-0.1-8.5-4.7-10.9-15.1C22.4,25.2,25.9,17.3,35.8,11.4"/>
	<linearGradient id="SVGID_1_" gradientUnits="userSpaceOnUse" x1="72.535" y1="41.3954" x2="72.3359" y2="36.5465">
		<stop  offset="0" style="stop-color:#BE8F00"/>
		<stop  offset="0.8528" style="stop-color:#FBBA00"/>
	</linearGradient>
	<path class="st2" d="M70.3,37.2c1.1,5.6-0.2,10.6-0.2,10.6s4.3-4.1,4.9-11.1L70.3,37.2z"/>
	<linearGradient id="SVGID_2_" gradientUnits="userSpaceOnUse" x1="55.7384" y1="17.3078" x2="63.1447" y2="22.0762">
		<stop  offset="0" style="stop-color:#BE8F00"/>
		<stop  offset="0.8344" style="stop-color:#FBBA00"/>
	</linearGradient>
	<path class="st3" d="M66.8,18.7c-4-3.2-7.9-4.7-7.9-4.7s-1.7,0.7-7.2,6.7c-0.1,0.1,4.1-0.7,9.7,3.4L66.8,18.7z"/>
	<path fill="#0064A7" d="M44.6,47c0,0,3.7,6.5,12.7,6.2c10-0.4,12.1-4.2,12.1-4.2s-5,8.5-12.1,8.3C49.3,57.1,44.6,47,44.6,47"/>
	<radialGradient id="SVGID_3_" cx="56.4121" cy="56.6725" r="8.3166" gradientUnits="userSpaceOnUse">
		<stop  offset="0.2025" style="stop-color:#BE8F00"/>
		<stop  offset="0.6933" style="stop-color:#FBBA00"/>
	</radialGradient>
	<path class="st4" d="M51.2,57.5c0,0,2.4,2.2,5.4,2.3c3.2,0.1,5.3-1.7,5.3-1.7s-2.9,5.7-5.7,6.3C53.5,65,51.2,57.5,51.2,57.5"/>
	<path fill="#FBBA00" d="M4.9,47.5c0,0,2.6,3.9,5.4,3.2c2-0.6,4.2-2.3,10-3.7c6.8-1.3,6.9,1.2,15.3,5.6c-11.3-3.7-14.3,2.6-21.5,2.4 C8.5,54.7,4.9,47.5,4.9,47.5"/>
	<path fill="#0064A7" d="M3.9,46.3c0,0-8.5-12-0.4-22.7c9.4-12.4,24.2-11.4,24.2-11.4s-5,3.4-7.1,9.2c0.2-0.2-8.6,0.9-13.8,7.5C0.6,36.8,3.9,46.3,3.9,46.3"/>
	<linearGradient id="SVGID_4_" gradientUnits="userSpaceOnUse" x1="33.4881" y1="49.5806" x2="20.0658" y2="49.6317">
		<stop  offset="0.2025" style="stop-color:#BE8F00"/>
		<stop  offset="0.7485" style="stop-color:#FBBA00"/>
	</linearGradient>
	<path class="st5" d="M22.1,46.7l1.6,5.6c3-1,6.4-1.5,11.8,0.3C27.9,48.6,27.2,46.2,22.1,46.7z"/>
	<linearGradient id="SVGID_5_" gradientUnits="userSpaceOnUse" x1="5.9932" y1="48.6228" x2="14.9867" y2="51.8697">
		<stop  offset="0.1779" style="stop-color:#BE8F00"/>
		<stop  offset="0.8896" style="stop-color:#FBBA00"/>
	</linearGradient>
	<path class="st6" d="M15.7,48.4c-2.6,1-4,1.9-5.4,2.3c-2.7,0.7-5.4-3.2-5.4-3.2s3.5,7.2,9.1,7.4c2,0.1,3.6-0.3,5.2-0.9L15.7,48.4z"/>
	<path fill="#BD2B0B" d="M43.2,71.7c-0.5,0.2-7.7,0.7-6.9-5.4C37,60.1,48,55.8,50,56.6c-2.7,1.4-8.4,2.5-10.5,8.7C37.4,71.5,43.2,71.6,43.2,71.7"/>
	<path fill="#0064A7" d="M54.4,74.9c-0.1,0.5-4.4,6.3-8.6,1.8C41.5,72.2,45.3,61,47.2,60c-0.7,3-3.5,8,0,13.7C50.5,79.2,54.3,74.9,54.4,74.9"/>
	<path fill="#007E48" d="M63.5,65.6c0.4,0.3,5,5.9-0.5,8.8c-5.5,2.9-15.3-3.6-15.8-5.7c2.7,1.4,6.8,5.4,13.2,3.6C66.7,70.4,63.5,65.7,63.5,65.6"/>
	<path fill="#0064A7" d="M77.8,3.5c-0.2-0.1-0.3-0.3-0.4-0.4c-0.1-0.2,0.1-0.2,0.1-0.6c0-0.3-0.3-0.5-0.4-0.6c0-0.1,0-0.5,0-0.6c0-0.1-0.2-0.3-0.3-0.4c-0.2-0.1-0.4,0-0.5-0.2c0-0.4-0.4-0.5-0.6-0.6c-0.2-0.1-0.3,0-0.6,0c-0.1,0-0.3-0.1-0.5-0.1
		c-0.2,0-0.3,0-0.9-0.1C73.3,0,73,0.1,72.3,0.2c-0.8,0.1-0.8,0.3-1.1,0.5C71,0.8,70.4,1.1,70,1.2c-0.4,0.2-1.1,0.3-2.2,0.6c-1.1,0.3-2,0.5-3,0.8c-1,0.2-1.1,0.3-1.8,0.5c-0.7,0.2-1.3,0.5-1.7,0.7c-0.4,0.2-0.9,0.4-1,0.5c-0.1,0-0.2,0-0.7,0.3
		c-0.6,0.3-0.8,0.5-1.1,0.5c-0.3,0.1-0.6,0.1-0.8,0.3c-0.2,0.2-0.2,0.4-0.4,0.5C57,6.1,57,6.1,56.8,6.2c-0.2,0.1-1,0.6-1.9,1.1 c-1.3,0.8-3,1.3-4.6,2.5c-0.8,0.6-1.3,1-1.7,1.4l-0.1,0c0,0,1.6-1.9,1.6-2.6c0-1.5-1.1-3-1.1-3s-0.2-0.8-0.7-1.3
		c-0.7-0.8-1.9-1.5-2.4-1.7c-1.9-0.9-3.3,0.1-3.3,0.1S42.2,2.9,42,3.2c-0.3,0.3-0.4,0.6-0.7,0.8c-0.7,0.5-1.4,0.5-1.4,0.5
		s-1.2,0-1.4,0c-0.2,0.1,0.2,1,0.2,1s-0.5,0.3-0.7,0.6c-0.3,0.3-0.4,0.6-0.4,0.6S37.4,7,37.2,7.2c-0.2,0.1-0.4,0.2-0.5,0.3c-0.2,0.4,0,0.7,0,0.7s0.4,0.5,0.7,0.8c0.3,0.2,0.8,0.7,1,0.9c0.4,0.5,0.2,1,0.2,1s-0.5,0.9-1.1,1.5c-2.5,1.6-8.5,5.4-10.8,13.8
		c-0.8,2.7-4.2,20.9,20.1,26.6C35.5,41.4,42.6,30,50.3,19.3l0,0c0,0,0.1-0.1,0.2-0.3c0-0.1,0.1-0.2,0.2-0.3l0,0c0.9-0.9,1.6-1.6,2-2.2c0.7-1,1.1-1.8,1.3-2.5c0,0,0,0,0,0c0,0,0,0,0-0.1c1.2-0.7,2.1-1.4,3-2.1c0.9-0.7,1.5-1.3,1.7-1.6
		c0.2-0.4,0.5-0.7,0.7-0.8c0.9-0.4,1.5-0.5,2.6-1.1c1.1-0.6,2.2-1,3-1.6c0.8-0.6,1.4-1.1,2.2-1.4c0.8-0.3,1.2-0.4,2-0.7
		c0.8-0.3,1.6-0.7,2-0.8c0.4-0.1,0.8-0.1,1,0c0.3,0.1,0.4,0.1,1.1,0.3c0.7,0.2,1.3,0.6,1.7,0.7c0.4,0.2,0.8,0,1.2-0.1 c0.4-0.1,1.1-0.2,1.4-0.4C78,4.2,78,4,78,3.8C78,3.7,78,3.6,77.8,3.5z"/>
</svg>